<?xml version="1.0" standalone="no"?>
<!DOCTYPE svg PUBLIC "-//W3C//DTD SVG 20010904//EN"
 "http://www.w3.org/TR/2001/REC-SVG-20010904/DTD/svg10.dtd">
<svg version="1.0" xmlns="http://www.w3.org/2000/svg"
 width="260.000000pt" height="260.000000pt" viewBox="0 0 260.000000 260.000000"
 preserveAspectRatio="xMidYMid meet">
<metadata>
Created by potrace 1.14, written by Peter Selinger 2001-2017
</metadata>
<g transform="translate(0.000000,260.000000) scale(0.100000,-0.100000)"
fill="#000000" stroke="none">
<path d="M0 1300 l0 -1300 1300 0 1300 0 0 1300 0 1300 -1300 0 -1300 0 0
-1300z m2253 998 c48 -25 46 14 47 -1018 0 -536 -4 -981 -9 -988 -5 -8 -22
-12 -42 -10 l-34 3 -5 965 c-3 531 -6 966 -8 968 -1 1 -406 1 -899 0 l-898 -3
-3 -927 -2 -928 289 0 c317 0 369 6 429 50 64 46 96 123 100 242 l4 98 -250 0
c-244 0 -252 1 -262 21 -10 18 8 56 124 275 75 141 136 257 136 260 0 2 -22 4
-48 4 -50 0 -73 13 -71 40 0 8 96 168 213 355 180 289 216 340 238 343 23 3
42 -24 235 -335 115 -186 213 -344 217 -350 4 -7 2 -22 -4 -33 -9 -16 -21 -20
-61 -20 -45 0 -50 -2 -44 -17 3 -10 62 -123 131 -252 87 -162 124 -242 122
-260 l-3 -26 -237 -3 -238 -2 0 40 0 40 185 2 184 3 -144 270 c-79 149 -145
273 -145 278 0 4 31 7 69 7 l70 0 -162 260 c-89 143 -166 261 -172 262 -5 2
-82 -114 -171 -257 l-162 -260 69 -3 c38 -2 69 -4 69 -6 0 -2 -65 -126 -145
-275 -80 -150 -145 -274 -145 -276 0 -3 111 -5 246 -5 l247 0 -6 -132 c-9
-237 -74 -349 -232 -402 -44 -14 -96 -16 -405 -14 l-355 3 -3 1000 c-2 931 -1
1001 15 1013 24 17 1893 18 1926 0z"/>
</g>
</svg>
