<?xml version="1.0" encoding="utf-8"?>
<svg viewBox="8.212 30.55 483.566 442.679" xmlns="http://www.w3.org/2000/svg">
  <path
    d="M 479.561 75.602 C 463.28 47.396 434.105 30.55 401.529 30.55 L 98.46 30.55 C 65.883 30.55 36.713 47.396 20.428 75.602 C 4.142 103.811 4.138 137.5 20.428 165.709 L 171.956 428.178 C 188.248 456.387 217.418 473.229 249.995 473.229 C 282.571 473.229 311.745 456.387 328.027 428.178 L 479.561 165.709 C 495.85 137.5 495.85 103.816 479.561 75.602 Z M 36.622 84.952 C 49.529 62.6 72.648 49.249 98.46 49.249 L 265.27 49.249 C 288.901 49.249 309.3 61.105 321.239 81.782 C 333.775 103.488 333.705 130.569 321.155 152.318 L 317.929 157.692 L 175.596 157.692 L 175.487 157.869 L 164.041 157.692 C 133.222 157.692 105.661 173.562 90.315 200.141 C 84.844 209.594 81.208 219.996 79.595 230.797 L 36.622 156.364 C 23.711 134.003 23.711 107.308 36.622 84.957 L 36.622 84.952 Z M 249.414 276.192 L 191.789 176.388 L 307.034 176.388 L 249.414 276.192 Z M 311.832 418.828 C 298.925 441.181 275.811 454.533 249.995 454.533 C 224.182 454.533 201.062 441.188 188.152 418.828 L 106.728 277.789 C 94.312 256.29 94.231 230.76 106.509 209.496 C 118.473 188.764 139.981 176.388 163.893 176.388 L 170.254 176.491 L 241.242 299.436 L 246.927 309.671 C 262.53 336.691 290.468 352.822 321.665 352.822 C 332.514 352.839 343.268 350.819 353.376 346.873 L 311.832 418.828 Z M 463.366 156.359 L 380.246 300.339 L 380.213 300.323 C 367.995 321.492 346.106 334.124 321.67 334.124 C 297.233 334.124 275.339 321.487 263.201 300.452 L 260.16 294.976 L 331.326 171.715 L 337.268 161.796 C 353.235 134.152 353.295 99.91 337.435 72.433 C 332.34 63.588 325.69 55.732 317.801 49.249 L 401.529 49.249 C 427.346 49.249 450.466 62.596 463.371 84.957 C 476.277 107.308 476.277 134.007 463.371 156.364 L 463.366 156.359 Z"
    style=""
    transform="matrix(-1, 0, 0, -1, 499.989777, 503.779022)"
    fill="url(#radialGradient1)"
    />
  <!-- give the shape a radial gradient centered around 33%, 33%, going from #c967e4 to #821c9f -->
  <defs>
    <radialGradient id="radialGradient1" cx="0.33" cy="0.33" r="0.5" fx="0.33" fy="0.33" gradientUnits="objectBoundingBox">
      <stop offset="0" stop-color="#c967e4"/>
      <stop offset="1" stop-color="#821c9f"/>
    </radialGradient>
  </defs>
  <!-- use that gradient to fill the <path> -->


</svg>