<svg xmlns="http://www.w3.org/2000/svg" xmlns:xlink="http://www.w3.org/1999/xlink" style="margin:auto;display:block;z-index:1;position:relative" width="2325" height="1509" preserveAspectRatio="xMidYMid" viewBox="0 0 2325 1509">
<g transform="translate(1162.5,754.5) scale(-1,1) translate(-1162.5,-754.5)"><g transform="translate(1362.5405721701952,-508.50646553603247) scale(100)" opacity="0.51">
  <path d="M12.403875 0 C12.403875 2.9411249999999995 12.877091346420315 4.038473534294493 11.406528846420315 6.585562499999999 S8.749026465705509 9.271508355366702 6.201937500000001 10.742070855366702 S2.9411250000000004 13.171125 8.064988036209841e-16 13.171125 S-3.6548485342944903 12.212633355366703 -6.201937499999997 10.742070855366704 S-9.935966346420312 9.13265146570551 -11.406528846420313 6.585562500000004 S-12.403875 2.941125000000001 -12.403875 1.5190365815773875e-15 S-12.877091346420315 -4.038473534294489 -11.406528846420317 -6.585562499999996 S-8.74902646570551 -9.271508355366699 -6.201937500000005 -10.7420708553667 S-2.9411250000000018 -13.171125 -2.419496410862952e-15 -13.171125 S3.6548485342944836 -12.212633355366707 6.201937499999992 -10.742070855366709 S9.93596634642031 -9.132651465705512 11.406528846420311 -6.585562500000006 S12.403875 -2.9411250000000027 12.403875 -3.038073163154775e-15" fill="#fca433" stroke-width="0">
    <animateTransform attributeName="transform" type="rotate" dur="25s" repeatCount="indefinite" values="0;60"></animateTransform>
  </path>
</g><g transform="translate(1402.5486866042343,-761.1077586432389) scale(100)" opacity="0.51">
  <path d="M14.88465 0 C14.88465 3.52935 15.452509615704379 4.846168241153391 13.687834615704379 7.9026749999999995 S10.49883175884661 11.125810026440044 7.442325000000002 12.890485026440045 S3.529350000000001 15.80535 9.67798564345181e-16 15.80535 S-4.3858182411533875 14.655160026440045 -7.442324999999997 12.890485026440047 S-11.923159615704375 10.959181758846613 -13.687834615704375 7.902675000000006 S-14.88465 3.5293500000000018 -14.88465 1.8228438978928653e-15 S-15.452509615704379 -4.846168241153387 -13.68783461570438 -7.902674999999996 S-10.498831758846613 -11.125810026440039 -7.4423250000000065 -12.890485026440041 S-3.529350000000003 -15.80535 -2.903395693035543e-15 -15.80535 S4.38581824115338 -14.655160026440049 7.4423249999999905 -12.890485026440052 S11.923159615704371 -10.959181758846615 13.687834615704373 -7.902675000000007 S14.88465 -3.5293500000000035 14.88465 -3.6456877957857306e-15" fill="#fcb43b" stroke-width="0">
    <animateTransform attributeName="transform" type="rotate" dur="12.5s" repeatCount="indefinite" values="0;60"></animateTransform>
  </path>
</g><g transform="translate(1498.568161245928,-1367.3508621005344) scale(100)" opacity="0.51">
  <path d="M20.838509999999996 0 C20.838509999999996 4.941089999999999 21.633513461986126 6.784635537614746 19.16296846198613 11.063744999999997 S14.69836446238525 15.57613403701606 10.419255 18.04667903701606 S4.941090000000001 22.127489999999998 1.3549179900832531e-15 22.127489999999998 S-6.140145537614742 20.517224037016057 -10.419254999999993 18.04667903701606 S-16.69242346198612 15.342854462385256 -19.16296846198612 11.063745000000006 S-20.838509999999996 4.941090000000002 -20.838509999999996 2.5519814570500107e-15 S-21.63351346198613 -6.784635537614742 -19.162968461986132 -11.063744999999994 S-14.698364462385257 -15.57613403701605 -10.419255000000007 -18.04667903701605 S-4.9410900000000035 -22.127489999999998 -4.064753970249759e-15 -22.127489999999998 S6.140145537614731 -20.517224037016064 10.419254999999984 -18.046679037016066 S16.69242346198612 -15.34285446238526 19.16296846198612 -11.06374500000001 S20.838509999999996 -4.941090000000004 20.838509999999996 -5.1039629141000214e-15" fill="#fcc446" stroke-width="0">
    <animateTransform attributeName="transform" type="rotate" dur="8.333333333333334s" repeatCount="indefinite" values="0;60"></animateTransform>
  </path>
</g><g transform="translate(1700.2090579934847,-2640.461379360855) scale(100)" opacity="0.51">
  <path d="M33.341615999999995 0 C33.341615999999995 7.9057439999999986 34.61362153917781 10.855416860183595 30.660749539177807 17.701991999999997 S23.517383139816403 24.921814459225693 16.670808 28.874686459225693 S7.905744 35.403984 2.1678687841332052e-15 35.403984 S-9.824232860183589 32.82755845922569 -16.67080799999999 28.874686459225696 S-26.707877539177797 24.548567139816413 -30.6607495391778 17.70199200000001 S-33.341615999999995 7.905744000000003 -33.341615999999995 4.083170331280017e-15 S-34.61362153917781 -10.855416860183587 -30.66074953917781 -17.70199199999999 S-23.51738313981641 -24.921814459225683 -16.67080800000001 -28.874686459225686 S-7.905744000000005 -35.403984 -6.503606352399616e-15 -35.403984 S9.824232860183571 -32.827558459225706 16.670807999999976 -28.87468645922571 S26.707877539177794 -24.548567139816413 30.660749539177797 -17.701992000000015 S33.341615999999995 -7.9057440000000065 33.341615999999995 -8.166340662560034e-15" fill="#fcd353" stroke-width="0">
    <animateTransform attributeName="transform" type="rotate" dur="6.25s" repeatCount="indefinite" values="0;60"></animateTransform>
  </path>
</g></g>
</svg>