<svg xmlns="http://www.w3.org/2000/svg" xmlns:xlink="http://www.w3.org/1999/xlink" style="margin:auto;background:#353b43;display:block;z-index:1;position:relative" width="2805" height="743" preserveAspectRatio="xMidYMid" viewBox="0 0 2805 743">
<g transform="translate(1402.5,371.5) scale(-1,1) translate(-1402.5,-371.5)"><g transform="translate(1861.4188440879768,-1681.58488792864) scale(100)" opacity="0.55">
  <path d="M20.406375000000004 0 C20.406375000000004 4.838625 21.87086075808992 3.82191718663457 20.019199135162385 8.292223789631995 S17.850910691054395 11.008061592816876 14.429486141935637 14.429486141935636 S12.762530392629422 18.16753751223485 8.292223789631997 20.019199135162385 S4.838625000000001 20.406375000000004 1.2495300912975287e-15 20.406375000000004 S-3.82191718663457 21.87086075808992 -8.292223789631995 20.019199135162385 S-11.008061592816876 17.850910691054395 -14.429486141935636 14.429486141935637 S-18.16753751223485 12.762530392629424 -20.019199135162385 8.292223789631999 S-20.406375000000004 4.838625000000003 -20.406375000000004 2.4990601825950573e-15 S-21.870860758089922 -3.8219171866345674 -20.01919913516239 -8.292223789631993 S-17.8509106910544 -11.008061592816876 -14.429486141935639 -14.429486141935636 S-12.762530392629433 -18.167537512234844 -8.292223789632008 -20.01919913516238 S-4.838625000000004 -20.406375000000004 -3.748590273892586e-15 -20.406375000000004 S3.8219171866345762 -21.87086075808992 8.292223789632 -20.019199135162385 S11.008061592816874 -17.8509106910544 14.429486141935634 -14.429486141935639 S18.167537512234844 -12.762530392629433 20.01919913516238 -8.29222378963201 S20.406375000000004 -4.838625000000006 20.406375000000004 -4.998120365190115e-15" fill="#e8bef4" stroke-width="0">
    <animateTransform attributeName="transform" type="rotate" dur="33.333333333333336s" repeatCount="indefinite" values="0;45"></animateTransform>
  </path>
</g><g transform="translate(1953.202612905572,-2092.201865514368) scale(100)" opacity="0.55">
  <path d="M24.487650000000002 0 C24.487650000000002 5.806350000000001 26.245032909707902 4.586300623961485 24.023038962194864 9.950668547558395 S21.421092829265273 13.209673911380248 17.315383370322763 17.31538337032276 S15.315036471155308 21.801045014681826 9.950668547558397 24.023038962194864 S5.806350000000003 24.487650000000002 1.4994361095570344e-15 24.487650000000002 S-4.586300623961483 26.245032909707902 -9.950668547558394 24.023038962194864 S-13.209673911380248 21.421092829265273 -17.31538337032276 17.315383370322763 S-21.801045014681826 15.315036471155308 -24.023038962194864 9.950668547558397 S-24.487650000000002 5.806350000000004 -24.487650000000002 2.9988722191140687e-15 S-26.245032909707906 -4.58630062396148 -24.023038962194867 -9.950668547558392 S-21.421092829265277 -13.209673911380248 -17.315383370322767 -17.31538337032276 S-15.31503647115532 -21.801045014681815 -9.95066854755841 -24.023038962194857 S-5.8063500000000055 -24.487650000000002 -4.498308328671103e-15 -24.487650000000002 S4.586300623961491 -26.245032909707902 9.9506685475584 -24.02303896219486 S13.209673911380245 -21.421092829265277 17.315383370322756 -17.315383370322767 S21.801045014681815 -15.31503647115532 24.023038962194857 -9.950668547558411 S24.487650000000002 -5.806350000000007 24.487650000000002 -5.9977444382281375e-15" fill="#c78bd8" stroke-width="0">
    <animateTransform attributeName="transform" type="rotate" dur="16.666666666666668s" repeatCount="indefinite" values="0;45"></animateTransform>
  </path>
</g><g transform="translate(2173.483658067801,-3077.6826117201153) scale(100)" opacity="0.55">
  <path d="M34.28271 0 C34.28271 8.12889 36.74304607359106 6.420820873546077 33.632254547072804 13.930935966581751 S29.98952996097138 18.49354347593235 24.24153671845187 24.241536718451865 S21.44105105961743 30.52146302055455 13.930935966581753 33.632254547072804 S8.128890000000002 34.28271 2.099210553379848e-15 34.28271 S-6.4208208735460754 36.74304607359106 -13.93093596658175 33.632254547072804 S-18.49354347593235 29.98952996097138 -24.241536718451865 24.24153671845187 S-30.52146302055455 21.44105105961743 -33.632254547072804 13.930935966581755 S-34.28271 8.128890000000004 -34.28271 4.198421106759696e-15 S-36.74304607359107 -6.420820873546073 -33.63225454707281 -13.930935966581748 S-29.989529960971385 -18.49354347593235 -24.241536718451872 -24.241536718451865 S-21.441051059617443 -30.52146302055454 -13.930935966581771 -33.6322545470728 S-8.128890000000007 -34.28271 -6.2976316601395434e-15 -34.28271 S6.420820873546087 -36.74304607359105 13.93093596658176 -33.6322545470728 S18.493543475932345 -29.989529960971385 24.24153671845186 -24.241536718451872 S30.52146302055454 -21.441051059617443 33.6322545470728 -13.930935966581773 S34.28271 -8.128890000000009 34.28271 -8.396842213519392e-15" fill="#a558bb" stroke-width="0">
    <animateTransform attributeName="transform" type="rotate" dur="11.11111111111111s" repeatCount="indefinite" values="0;45"></animateTransform>
  </path>
</g><g transform="translate(2636.0738529084815,-5147.192178752184) scale(100)" opacity="0.55">
  <path d="M54.85233600000001 0 C54.85233600000001 13.006224000000001 58.78887371774569 10.273313397673721 53.81160727531648 22.2894975465308 S47.98324793755422 29.58966956149176 38.78645874952299 38.786458749522986 S34.30568169538788 48.83434083288727 22.289497546530804 53.81160727531648 S13.006224000000005 54.85233600000001 3.358736885407757e-15 54.85233600000001 S-10.273313397673718 58.78887371774569 -22.289497546530797 53.81160727531648 S-29.58966956149176 47.98324793755422 -38.786458749522986 38.78645874952299 S-48.83434083288727 34.30568169538789 -53.81160727531648 22.289497546530807 S-54.85233600000001 13.006224000000008 -54.85233600000001 6.717473770815514e-15 S-58.788873717745695 -10.273313397673713 -53.81160727531649 -22.289497546530793 S-47.983247937554225 -29.58966956149176 -38.786458749523 -38.786458749522986 S-34.30568169538791 -48.83434083288725 -22.289497546530832 -53.81160727531647 S-13.006224000000012 -54.85233600000001 -1.007621065622327e-14 -54.85233600000001 S10.273313397673737 -58.78887371774569 22.289497546530814 -53.811607275316476 S29.589669561491753 -47.983247937554225 38.78645874952298 -38.786458749523 S48.83434083288725 -34.30568169538791 53.81160727531647 -22.289497546530836 S54.85233600000001 -13.006224000000016 54.85233600000001 -1.3434947541631028e-14" fill="#821c9f" stroke-width="0">
    <animateTransform attributeName="transform" type="rotate" dur="8.333333333333334s" repeatCount="indefinite" values="0;45"></animateTransform>
  </path>
</g></g>
</svg>